<svg width="13" height="10" viewBox="0 0 13 10" fill="none" xmlns="http://www.w3.org/2000/svg">
<path d="M0.481682 0.0537598C0.346947 0.0235897 0.213265 0.108356 0.183095 0.243091C0.152925 0.377825 0.237691 0.511507 0.372426 0.541677L0.481682 0.0537598ZM12.26 8.17565L11.3684 6.33942L9.53222 7.231L10.4238 9.06723L12.26 8.17565ZM5.36945 5.78942L5.45126 5.55319L5.36945 5.78942ZM7.02888 1.77601L7.0835 1.53205L7.02888 1.77601ZM7.2157 2.23095L7.00538 2.09579L7.2157 2.23095ZM0.372426 0.541677L6.97425 2.01997L7.0835 1.53205L0.481682 0.0537598L0.372426 0.541677ZM7.00538 2.09579L5.00493 5.20859L5.42556 5.47891L7.42601 2.36611L7.00538 2.09579ZM5.28764 6.02566L10.8143 7.93956L10.9779 7.46709L5.45126 5.55319L5.28764 6.02566ZM5.00493 5.20859C4.81237 5.50824 4.95107 5.9091 5.28764 6.02566L5.45126 5.55319C5.42067 5.54259 5.40806 5.50615 5.42556 5.47891L5.00493 5.20859ZM6.97425 2.01997C7.00815 2.02756 7.02417 2.06656 7.00538 2.09579L7.42601 2.36611C7.63263 2.0446 7.45645 1.61556 7.0835 1.53205L6.97425 2.01997Z" fill="#FF027C"/>
</svg>
