<svg width="28" height="28" viewBox="0 0 28 28" fill="none" xmlns="http://www.w3.org/2000/svg">
<circle cx="14" cy="14" r="14" fill="#3A7AE4"/>
<path d="M18.4521 9.45474C18.6634 9.25357 18.9446 9.14236 19.2363 9.14456C19.528 9.14677 19.8075 9.26223 20.0157 9.46657C20.224 9.67091 20.3447 9.94815 20.3524 10.2398C20.3601 10.5314 20.2542 10.8147 20.0571 11.0297L14.0721 18.5147C13.9691 18.6256 13.8449 18.7145 13.7069 18.7763C13.5688 18.838 13.4197 18.8713 13.2684 18.8741C13.1172 18.8769 12.967 18.8492 12.8267 18.7926C12.6864 18.736 12.559 18.6517 12.4521 18.5447L8.48306 14.5757C8.37253 14.4727 8.28388 14.3485 8.22239 14.2105C8.1609 14.0725 8.12784 13.9236 8.12518 13.7725C8.12251 13.6215 8.1503 13.4714 8.20688 13.3313C8.26346 13.1913 8.34768 13.064 8.45451 12.9572C8.56133 12.8504 8.68858 12.7661 8.82867 12.7096C8.96875 12.653 9.11879 12.6252 9.26985 12.6278C9.4209 12.6305 9.56987 12.6636 9.70787 12.7251C9.84587 12.7866 9.97007 12.8752 10.0731 12.9857L13.2141 16.1252L18.4236 9.48774C18.4329 9.47619 18.443 9.46517 18.4536 9.45474H18.4521Z" fill="white"/>
</svg>
