<svg width="14" height="9" viewBox="0 0 14 9" fill="none" xmlns="http://www.w3.org/2000/svg">
<path d="M0.806954 7.84115C0.719224 7.94777 0.734534 8.10532 0.841151 8.19305C0.947767 8.28078 1.10532 8.26547 1.19305 8.15885L0.806954 7.84115ZM5.29866 2.77593L5.49171 2.93478V2.93478L5.29866 2.77593ZM5.78895 2.81454L5.57342 2.94121V2.94122L5.78895 2.81454ZM7.66388 6.00451L7.87941 5.87784V5.87784L7.66388 6.00451ZM8.13118 6.06804L8.30506 6.24766L8.13118 6.06804ZM13.3704 0.996062L11.3294 0.962965L11.2963 3.00394L13.3373 3.03703L13.3704 0.996062ZM1.19305 8.15885L5.49171 2.93478L5.10562 2.61708L0.806954 7.84115L1.19305 8.15885ZM5.57342 2.94122L7.44835 6.13119L7.87941 5.87784L6.00448 2.68786L5.57342 2.94122ZM8.30506 6.24766L12.5072 2.17962L12.1594 1.82038L7.95729 5.88842L8.30506 6.24766ZM7.44835 6.13119C7.62883 6.43827 8.04915 6.49541 8.30506 6.24766L7.95729 5.88842C7.93402 5.91095 7.89581 5.90575 7.87941 5.87784L7.44835 6.13119ZM5.49171 2.93478C5.51378 2.90795 5.55582 2.91126 5.57342 2.94121L6.00448 2.68786C5.81083 2.35838 5.34845 2.32197 5.10562 2.61708L5.49171 2.93478Z" fill="#30D5C8"/>
</svg>
